<?xml version="1.0" encoding="utf-8"?>
<!-- Generator: Adobe Illustrator 24.2.1, SVG Export Plug-In . SVG Version: 6.00 Build 0)  -->
<svg version="1.1" xmlns="http://www.w3.org/2000/svg" xmlns:xlink="http://www.w3.org/1999/xlink" x="0px" y="0px"
	 viewBox="0 0 347.29 152.47" style="enable-background:new 0 0 347.29 152.47;" xml:space="preserve">
<style type="text/css">
	.st0{display:none;}
	.st1{display:inline;}
	.st2{opacity:0.15;fill:#D1D3D4;}
	.st3{font-family:'Fieldwork-Geo-Regular';}
	.st4{font-size:15.5717px;}
</style>
<g id="Artwork">
	<g>
		<path d="M148.67,58.14v10.37h-2.93v-4.04h-4v4.04h-2.93V58.14h2.93v3.9h4v-3.9H148.67z"/>
		<path d="M150.21,63.33c0-3.11,2.44-5.39,5.76-5.39s5.76,2.28,5.76,5.39s-2.44,5.39-5.76,5.39S150.21,66.44,150.21,63.33z
			 M158.77,63.33c0-1.79-1.23-2.96-2.8-2.96c-1.57,0-2.8,1.17-2.8,2.96s1.23,2.96,2.8,2.96C157.55,66.29,158.77,65.12,158.77,63.33z
			"/>
		<path d="M167.82,65.76h-1.6v2.76h-2.93V58.14h4.74c2.83,0,4.61,1.47,4.61,3.84c0,1.53-0.74,2.65-2.03,3.27l2.24,3.26h-3.14
			L167.82,65.76z M167.85,60.45h-1.63v3.04h1.63c1.21,0,1.82-0.56,1.82-1.51C169.67,61.02,169.06,60.45,167.85,60.45z"/>
		<path d="M174.25,58.14h2.93v10.37h-2.93V58.14z"/>
		<path d="M188.05,66.19v2.33h-9.29v-1.84l5.23-6.21h-5.1v-2.33h8.93v1.84l-5.23,6.21H188.05z"/>
		<path d="M188.72,63.33c0-3.11,2.44-5.39,5.76-5.39c3.32,0,5.76,2.28,5.76,5.39s-2.44,5.39-5.76,5.39
			C191.16,68.72,188.72,66.44,188.72,63.33z M197.28,63.33c0-1.79-1.23-2.96-2.8-2.96c-1.57,0-2.8,1.17-2.8,2.96s1.23,2.96,2.8,2.96
			C196.05,66.29,197.28,65.12,197.28,63.33z"/>
		<path d="M211.66,58.14v10.37h-2.42l-4.58-5.53v5.53h-2.87V58.14h2.42l4.58,5.53v-5.53H211.66z"/>
		<path d="M215.94,60.47h-3.19v-2.33h9.29v2.33h-3.17v8.04h-2.93V60.47z"/>
		<path d="M229.58,66.5h-4.39l-0.81,2.01h-2.99l4.58-10.37h2.89l4.59,10.37h-3.05L229.58,66.5z M228.72,64.33l-1.33-3.32l-1.33,3.32
			H228.72z"/>
		<path d="M234.28,58.14h2.93v8.04h4.95v2.33h-7.88V58.14z"/>
		<path d="M138.8,75.93h4.9c3.44,0,5.79,2,5.79,5.19c0,3.19-2.36,5.19-5.79,5.19h-4.9V75.93z M143.58,83.96
			c1.76,0,2.95-1.05,2.95-2.84c0-1.79-1.19-2.85-2.95-2.85h-1.85v5.69H143.58z"/>
		<path d="M151.04,75.93h2.93V86.3h-2.93V75.93z"/>
		<path d="M160.6,83.54H159v2.76h-2.93V75.93h4.74c2.83,0,4.61,1.47,4.61,3.84c0,1.53-0.74,2.65-2.03,3.27l2.24,3.26h-3.14
			L160.6,83.54z M160.63,78.24H159v3.04h1.63c1.21,0,1.82-0.56,1.82-1.51C162.45,78.8,161.84,78.24,160.63,78.24z"/>
		<path d="M175.36,84.03v2.27h-8.33V75.93h8.13v2.27h-5.23v1.75h4.61v2.19h-4.61v1.9H175.36z"/>
		<path d="M176.45,81.11c0-3.16,2.42-5.39,5.7-5.39c1.91,0,3.45,0.7,4.46,1.96l-1.87,1.69c-0.65-0.79-1.45-1.22-2.45-1.22
			c-1.7,0-2.89,1.19-2.89,2.96c0,1.78,1.19,2.96,2.89,2.96c0.99,0,1.79-0.43,2.45-1.21l1.87,1.69c-1.01,1.26-2.55,1.96-4.46,1.96
			C178.86,86.51,176.45,84.27,176.45,81.11z"/>
		<path d="M190.04,78.25h-3.19v-2.33h9.29v2.33h-3.17v8.05h-2.93V78.25z"/>
		<path d="M197.24,75.93h2.93V86.3h-2.93V75.93z"/>
		<path d="M201.73,81.11c0-3.11,2.44-5.39,5.76-5.39c3.32,0,5.76,2.28,5.76,5.39c0,3.11-2.45,5.39-5.76,5.39
			C204.18,86.51,201.73,84.22,201.73,81.11z M210.29,81.11c0-1.79-1.23-2.96-2.8-2.96s-2.8,1.17-2.8,2.96c0,1.79,1.23,2.96,2.8,2.96
			S210.29,82.91,210.29,81.11z"/>
		<path d="M224.67,75.93V86.3h-2.42l-4.58-5.53v5.53h-2.88V75.93h2.42l4.58,5.53v-5.53H224.67z"/>
		<path d="M233.7,84.28h-4.39l-0.81,2.01h-2.99l4.58-10.37h2.89l4.59,10.37h-3.05L233.7,84.28z M232.84,82.12l-1.33-3.32l-1.33,3.32
			H232.84z"/>
		<path d="M238.4,75.93h2.93v8.05h4.95v2.33h-7.88V75.93z"/>
		<path d="M251.75,75.93h4.9c3.44,0,5.79,2,5.79,5.19c0,3.19-2.36,5.19-5.79,5.19h-4.9V75.93z M256.54,83.96
			c1.76,0,2.95-1.05,2.95-2.84c0-1.79-1.19-2.85-2.95-2.85h-1.85v5.69H256.54z"/>
		<path d="M268.53,83.54h-1.6v2.76H264V75.93h4.74c2.83,0,4.61,1.47,4.61,3.84c0,1.53-0.74,2.65-2.03,3.27l2.24,3.26h-3.14
			L268.53,83.54z M268.56,78.24h-1.63v3.04h1.63c1.21,0,1.82-0.56,1.82-1.51C270.38,78.8,269.77,78.24,268.56,78.24z"/>
		<path d="M274.96,75.93h2.93V86.3h-2.93V75.93z"/>
		<path d="M279.99,75.93h2.93v8.05h4.95v2.33h-7.88V75.93z"/>
		<path d="M289.03,75.93h2.93v8.05h4.95v2.33h-7.88V75.93z"/>
		<path d="M298.07,75.93H301V86.3h-2.93V75.93z"/>
		<path d="M312.96,75.93V86.3h-2.42l-4.58-5.53v5.53h-2.87V75.93h2.42l4.58,5.53v-5.53H312.96z"/>
		<path d="M321.99,80.89h2.59v4.3c-1.2,0.86-2.84,1.32-4.36,1.32c-3.3,0-5.72-2.24-5.72-5.39c0-3.16,2.42-5.39,5.78-5.39
			c1.94,0,3.51,0.67,4.53,1.9l-1.87,1.69c-0.71-0.79-1.53-1.16-2.52-1.16c-1.78,0-2.96,1.17-2.96,2.96c0,1.75,1.19,2.96,2.93,2.96
			c0.55,0,1.07-0.1,1.59-0.34V80.89z"/>
		<g>
			<path d="M92.07,71.59c0-30.77,23.55-53,55.21-53c16.78,0,31.21,6.04,40.78,17.22l-12.37,11.63c-7.51-8.1-16.78-12.07-27.53-12.07
				c-21.35,0-36.8,15.02-36.8,36.22s15.46,36.22,36.8,36.22c10.75,0,20.02-3.97,27.53-12.22l12.37,11.78
				c-9.57,11.19-24,17.22-40.93,17.22C115.62,124.59,92.07,102.36,92.07,71.59z"/>
		</g>
		<g>
			<path d="M54.68,44.81c0-9.61,0,2.65,0-6.89c0.88,0,1.61,0,2.34,0c12.12,0,24.39-0.03,36.51,0.03V18.36
				c-22.13,0.02-44.64,0.02-66.78,0.01v20.89l0.05,37.9c0.28,4.12-0.35,7.68-3.76,10.36c-0.13,0.1-0.19,0.3-0.57,0.92
				c12.44-4.4,24.45-8.65,36.45-12.89c0.17-0.26,0.35-0.53,0.52-0.79c-1.21-0.94-2.46-1.84-3.6-2.86c-0.56-0.5-1.24-1.22-1.29-1.87
				C54.4,67.72,54.5,65.38,54.5,63L54.68,44.81z"/>
			<path d="M54.53,113.71c0,2.16,0.01,3.95,0,5.74c-0.01,1.68-0.35,3.48,2.13,4.13c-0.09,0.14-0.18,0.29-0.27,0.43
				c-6.03,2.14-12.06,4.29-18.09,6.43c0.04,0.12,0.08,0.25,0.12,0.37c4.63-0.95,9.26-1.9,13.89-2.84c0.07,0.1,0.15,0.2,0.22,0.29
				c-3.92,3.75-7.83,7.5-12,11.48c-4.12-4.51-8.17-8.95-12.14-13.3C36.49,122.5,45.35,118.19,54.53,113.71z"/>
			<path d="M22.68,99.88c0.9-1.06,1.74-2.18,2.72-3.15c1.04-1.03,1.46-2.17,1.41-3.64c-0.02-0.64,0.38-1.66,0.89-1.91
				c8.69-4.32,17.42-8.55,26.14-12.79c0.15-0.07,0.35-0.03,0.88-0.07c-1.63,4.46,2.12,6.22,4.53,9.03
				C47,91.67,34.95,95.93,22.9,100.19C22.83,100.09,22.75,99.99,22.68,99.88z"/>
			<path d="M22.67,123.63c0.68-0.78,1.33-1.6,2.05-2.34c1.33-1.36,2.44-2.75,2.07-4.87c-0.07-0.42,0.39-1.2,0.8-1.41
				c8.81-4.34,17.66-8.62,26.5-12.9c0.04-0.02,0.12,0.01,0.51,0.08c-1.56,4.37,2.27,6.14,4.61,8.97
				c-12.21,4.31-24.23,8.56-36.25,12.81C22.87,123.84,22.77,123.73,22.67,123.63z"/>
			<path d="M54.75,90.09c-1.68,4.58,2.11,6.33,4.48,9.16c-12.23,4.32-24.28,8.58-36.34,12.84c-0.07-0.11-0.15-0.22-0.22-0.32
				c0.83-0.96,1.6-1.98,2.5-2.86c1.18-1.15,1.73-2.43,1.64-4.12c-0.03-0.6,0.51-1.54,1.05-1.81c8.58-4.26,17.2-8.44,25.82-12.63
				C53.89,90.24,54.13,90.23,54.75,90.09z"/>
		</g>
		<path d="M51.94,104.83c1.2,0.03,2.49,0.09,3.78,0.09c14.36,0.01,56.26,0.06,70.62-0.03l18.7,19.65
			c-13.23,0.05-77.2-0.04-90.43-0.07c-0.83,0-1.67,0.06-3.04,0.12L51.94,104.83z"/>
		<path d="M36.7,57.39c0.73,0.03,1.51,0.09,2.29,0.09c8.71,0.01,38.54,0.06,47.24-0.03V77.1c-8.02,0.05-39.89-0.04-47.91-0.07
			c-0.51,0-0.79,0.06-1.62,0.12V57.39z"/>
		<path d="M111.83,88.45c-0.03,0.73-0.15,25.81-0.06,34.52H92.12c-0.05-8.02,0.04-39.89,0.07-47.91c0-0.51-0.06-0.79-0.12-1.62
			L111.83,88.45z"/>
	</g>
</g>
<g id="Proof" class="st0">
	<g class="st1">
		<g>
			<text transform="matrix(1 0 0 1 -22.2505 12.3204)" class="st3 st4" style="opacity:0.15;fill:#DADADA;">PROOF</text>
			<text transform="matrix(1 0 0 1 51.8672 12.3204)" class="st3 st4" style="opacity:0.15;fill:#DADADA;">PROOF</text>
			<text transform="matrix(1 0 0 1 118.2201 12.3204)" class="st3 st4" style="opacity:0.15;fill:#DADADA;">PROOF</text>
			<text transform="matrix(1 0 0 1 183.1613 12.3204)" class="st3 st4" style="opacity:0.15;fill:#DADADA;">PROOF</text>
			<text transform="matrix(1 0 0 1 248.1006 12.3204)" class="st3 st4" style="opacity:0.15;fill:#DADADA;">PROOF</text>
			<text transform="matrix(1 0 0 1 327.8654 12.3204)" class="st3 st4" style="opacity:0.15;fill:#DADADA;">PROOF</text>
		</g>
		<g>
			<text transform="matrix(1 0 0 1 -22.2505 39.3204)" class="st3 st4" style="opacity:0.15;fill:#DADADA;">PROOF</text>
			<text transform="matrix(1 0 0 1 51.8672 39.3204)" class="st3 st4" style="opacity:0.15;fill:#DADADA;">PROOF</text>
			<text transform="matrix(1 0 0 1 118.2201 39.3204)" class="st3 st4" style="opacity:0.15;fill:#DADADA;">PROOF</text>
			<text transform="matrix(1 0 0 1 183.1613 39.3204)" class="st3 st4" style="opacity:0.15;fill:#DADADA;">PROOF</text>
			<text transform="matrix(1 0 0 1 248.1006 39.3204)" class="st3 st4" style="opacity:0.15;fill:#DADADA;">PROOF</text>
			<text transform="matrix(1 0 0 1 327.8654 39.3204)" class="st3 st4" style="opacity:0.15;fill:#DADADA;">PROOF</text>
		</g>
		<g>
			<text transform="matrix(1 0 0 1 -22.2505 66.3204)" class="st3 st4" style="opacity:0.15;fill:#DADADA;">PROOF</text>
			<text transform="matrix(1 0 0 1 51.8672 66.3204)" class="st3 st4" style="opacity:0.15;fill:#DADADA;">PROOF</text>
			<text transform="matrix(1 0 0 1 118.2201 66.3204)" class="st3 st4" style="opacity:0.15;fill:#DADADA;">PROOF</text>
			<text transform="matrix(1 0 0 1 183.1613 66.3204)" class="st3 st4" style="opacity:0.15;fill:#DADADA;">PROOF</text>
			<text transform="matrix(1 0 0 1 248.1006 66.3204)" class="st3 st4" style="opacity:0.15;fill:#DADADA;">PROOF</text>
			<text transform="matrix(1 0 0 1 327.8654 66.3204)" class="st3 st4" style="opacity:0.15;fill:#DADADA;">PROOF</text>
		</g>
		<g>
			<text transform="matrix(1 0 0 1 -22.2505 93.3204)" class="st3 st4" style="opacity:0.15;fill:#DADADA;">PROOF</text>
			<text transform="matrix(1 0 0 1 51.8672 93.3204)" class="st3 st4" style="opacity:0.15;fill:#DADADA;">PROOF</text>
			<text transform="matrix(1 0 0 1 118.2201 93.3204)" class="st3 st4" style="opacity:0.15;fill:#DADADA;">PROOF</text>
			<text transform="matrix(1 0 0 1 183.1613 93.3204)" class="st3 st4" style="opacity:0.15;fill:#DADADA;">PROOF</text>
			<text transform="matrix(1 0 0 1 248.1006 93.3204)" class="st3 st4" style="opacity:0.15;fill:#DADADA;">PROOF</text>
			<text transform="matrix(1 0 0 1 327.8654 93.3204)" class="st3 st4" style="opacity:0.15;fill:#DADADA;">PROOF</text>
		</g>
		<g>
			<text transform="matrix(1 0 0 1 -22.2505 120.3204)" class="st3 st4" style="opacity:0.15;fill:#DADADA;">PROOF</text>
			<text transform="matrix(1 0 0 1 51.8672 120.3204)" class="st3 st4" style="opacity:0.15;fill:#DADADA;">PROOF</text>
			<text transform="matrix(1 0 0 1 118.2201 120.3204)" class="st3 st4" style="opacity:0.15;fill:#DADADA;">PROOF</text>
			<text transform="matrix(1 0 0 1 183.1613 120.3204)" class="st3 st4" style="opacity:0.15;fill:#DADADA;">PROOF</text>
			<text transform="matrix(1 0 0 1 248.1006 120.3204)" class="st3 st4" style="opacity:0.15;fill:#DADADA;">PROOF</text>
			<text transform="matrix(1 0 0 1 327.8654 120.3204)" class="st3 st4" style="opacity:0.15;fill:#DADADA;">PROOF</text>
		</g>
		<g>
			<text transform="matrix(1 0 0 1 -22.2505 147.3204)" class="st3 st4" style="opacity:0.15;fill:#DADADA;">PROOF</text>
			<text transform="matrix(1 0 0 1 51.8672 147.3204)" class="st3 st4" style="opacity:0.15;fill:#DADADA;">PROOF</text>
			<text transform="matrix(1 0 0 1 118.2201 147.3204)" class="st3 st4" style="opacity:0.15;fill:#DADADA;">PROOF</text>
			<text transform="matrix(1 0 0 1 183.1613 147.3204)" class="st3 st4" style="opacity:0.15;fill:#DADADA;">PROOF</text>
			<text transform="matrix(1 0 0 1 248.1006 147.3204)" class="st3 st4" style="opacity:0.15;fill:#DADADA;">PROOF</text>
			<text transform="matrix(1 0 0 1 327.8654 147.3204)" class="st3 st4" style="opacity:0.15;fill:#DADADA;">PROOF</text>
		</g>
	</g>
</g>
</svg>
